<svg xmlns="http://www.w3.org/2000/svg" xmlns:xlink="http://www.w3.org/1999/xlink" version="1" viewBox="0 0 56 65"><defs><path id="a" d="M56 16L28 0 0 16v33l28 16 28-16V37l-8-5 8-4V16zM38 38l8 5-18 10-18-10V22l18-10 18 10-8 5v11z"/><clipPath id="b"><use width="100%" height="100%" overflow="visible" xlink:href="#a"/></clipPath></defs><g clip-path="url(#b)"><path fill="#8300c0" d="M28-11v43l38-22z"/><path fill="#fa006e" d="M-10 10l38 22v-43z"/><path fill="#de001d" d="M-10 54l38-22-38-22z"/><path fill="#ee9126" d="M28 76V32l-38 22z"/><path fill="#27a2df" d="M66 10L28 32l38 22z"/><path fill="#49a339" d="M46 43L28 32v44l38-22-10-5V37z"/></g></svg>