<?xml version="1.0" standalone="no"?>
<!DOCTYPE svg PUBLIC "-//W3C//DTD SVG 20010904//EN"
 "http://www.w3.org/TR/2001/REC-SVG-20010904/DTD/svg10.dtd">
<svg version="1.0" xmlns="http://www.w3.org/2000/svg"
 width="700.000000pt" height="700.000000pt" viewBox="0 0 700.000000 700.000000"
 preserveAspectRatio="xMidYMid meet">
<metadata>
Created by potrace 1.14, written by Peter Selinger 2001-2017
</metadata>
<g transform="translate(0.000000,700.000000) scale(0.100000,-0.100000)"
fill="#000000" stroke="none">
<path d="M1400 6276 l0 -725 215 -1 c118 0 215 3 216 7 1 5 2 157 3 338 l1
330 363 2 362 1 1 -21 c0 -12 2 -29 3 -37 2 -8 6 -49 10 -90 11 -131 17 -194
23 -220 9 -42 11 -837 2 -878 -4 -20 -11 -53 -14 -72 -3 -19 -10 -53 -15 -75
-5 -22 -12 -56 -15 -75 -20 -114 -32 -143 -128 -310 -68 -117 -154 -208 -260
-273 -71 -43 -104 -54 -212 -65 -74 -8 -371 -7 -425 1 -165 25 -258 76 -479
257 -200 165 -350 476 -397 825 -3 28 -8 58 -9 67 -2 9 -7 48 -10 85 -4 37 -8
79 -10 92 -2 13 -7 58 -11 100 -3 42 -8 90 -10 106 -23 171 -23 380 1 590 2
17 6 71 10 120 6 85 11 141 20 210 6 49 17 129 21 149 2 10 6 44 10 75 3 31 8
64 10 74 7 41 3 42 -241 41 -129 0 -236 -2 -239 -5 -2 -2 -7 -47 -10 -99 -4
-52 -9 -122 -11 -155 -7 -84 -13 -163 -21 -285 -16 -225 -8 -1141 11 -1275 2
-16 9 -66 15 -110 42 -302 134 -602 269 -873 103 -209 148 -276 273 -408 330
-348 725 -498 1188 -450 165 17 327 76 422 153 25 21 72 54 104 73 70 43 209
178 293 285 34 44 69 88 76 97 37 46 53 92 151 433 58 203 107 371 109 375 5
7 12 46 26 130 8 50 4 637 -5 735 -2 22 -7 94 -11 160 -4 66 -8 138 -10 160
-1 22 -6 92 -9 155 -11 189 -16 226 -37 307 -20 80 -34 162 -44 268 -3 33 -8
76 -10 95 -3 19 -7 60 -10 90 -6 57 -28 151 -48 208 l-11 32 -748 0 -748 0 0
-724z"/>
<path d="M5347 6904 c-1 -1 -58 -4 -127 -8 -69 -3 -135 -8 -146 -10 -12 -2
-45 -7 -75 -11 -30 -3 -61 -8 -69 -10 -8 -2 -35 -7 -60 -10 -58 -8 -266 -59
-350 -86 -234 -75 -555 -225 -686 -322 -97 -72 -268 -246 -340 -347 -177 -246
-258 -501 -258 -805 1 -310 82 -569 231 -738 51 -58 140 -139 288 -262 33 -27
74 -62 90 -77 17 -16 35 -28 42 -28 7 0 162 -43 345 -96 408 -118 411 -118
560 -140 91 -12 645 0 933 21 33 2 103 7 155 10 105 6 227 14 306 20 28 2 93
11 145 19 52 8 121 17 154 20 33 4 71 9 85 11 14 3 41 7 60 10 135 21 289 63
313 85 5 4 10 52 12 106 9 265 16 493 20 629 6 183 13 410 20 613 l6 152 -723
-2 -723 -3 -3 -209 c-1 -133 1 -212 8 -216 5 -3 147 -6 315 -5 l305 0 0 -362
c0 -339 -1 -363 -17 -364 -10 0 -27 -2 -38 -5 -11 -2 -45 -6 -75 -9 -58 -6
-113 -13 -170 -20 -19 -2 -61 -7 -92 -10 -32 -3 -86 -12 -120 -19 -173 -40
-513 -63 -633 -44 -70 11 -395 119 -457 152 -121 64 -254 165 -321 242 -134
156 -149 207 -150 509 -2 347 16 426 135 601 120 176 165 217 329 298 74 36
177 79 229 96 90 29 372 102 436 113 16 3 49 10 74 15 58 14 106 20 205 27 44
4 96 8 115 10 217 22 271 24 425 12 445 -34 442 -34 615 -61 80 -13 165 -24
189 -25 l43 -1 -6 78 c-4 42 -8 91 -10 107 -4 29 -11 94 -22 215 -8 87 -8 86
-69 89 -30 1 -62 4 -72 5 -10 2 -72 7 -138 11 -66 3 -133 8 -150 10 -90 12
-294 18 -668 19 -230 0 -419 0 -420 0z"/>
<path d="M5157 3864 c-1 -1 -47 -4 -102 -7 -89 -6 -149 -14 -222 -32 -13 -3
-31 -7 -40 -9 -47 -11 -164 -60 -213 -90 -198 -120 -209 -127 -290 -206 -74
-73 -139 -161 -212 -290 -14 -25 -42 -71 -61 -104 -44 -71 -77 -158 -113 -291
-14 -55 -40 -147 -56 -205 -39 -137 -36 -116 -53 -455 -2 -33 -6 -116 -10
-185 -4 -69 -8 -142 -8 -162 -2 -55 -15 -47 -16 10 -1 47 -7 104 -16 152 -2
14 -7 39 -10 56 -15 91 -73 232 -139 333 -25 38 -46 72 -46 76 0 9 -58 85 -99
131 -56 60 -156 143 -221 182 -30 18 -95 58 -145 89 -125 77 -206 117 -310
151 -76 25 -135 39 -333 77 -12 2 -66 6 -120 9 -193 11 -278 16 -357 21 -91 6
-266 15 -371 19 -39 2 -95 0 -125 -5 -30 -5 -79 -11 -109 -15 -30 -3 -66 -7
-80 -9 -14 -2 -47 -7 -75 -10 -85 -10 -209 -26 -235 -30 -14 -2 -47 -6 -75 -9
-84 -10 -128 -15 -165 -20 -130 -18 -170 -23 -245 -31 -27 -3 -66 -8 -85 -10
-19 -3 -55 -7 -80 -10 -48 -5 -125 -16 -150 -20 -8 -2 -50 -6 -92 -10 l-78 -7
0 -774 0 -774 153 5 c83 2 222 7 307 10 85 3 218 7 295 10 77 2 221 7 320 11
99 3 218 8 265 9 47 2 91 4 98 4 18 1 18 427 -1 433 -6 2 -159 3 -339 3 l-326
-1 0 337 0 337 32 6 c17 3 42 9 56 12 14 3 36 7 50 10 14 2 97 19 185 37 l160
32 370 -1 370 -1 105 -30 c58 -17 137 -38 175 -47 39 -9 77 -18 85 -20 41 -11
127 -48 203 -90 159 -86 283 -247 317 -411 18 -83 19 -390 3 -492 -24 -153
-76 -248 -247 -457 -93 -112 -182 -181 -334 -256 -163 -81 -402 -143 -641
-165 -25 -3 -62 -7 -81 -10 -34 -4 -62 -7 -195 -20 -33 -3 -94 -10 -135 -15
-71 -8 -297 -6 -350 4 -14 2 -68 7 -120 11 -52 3 -122 8 -155 10 -79 6 -179
15 -202 19 -10 2 -43 7 -73 11 -30 4 -64 9 -75 11 -19 4 -76 11 -142 18 -19 2
-33 -1 -34 -8 -4 -42 -3 -460 1 -466 5 -8 45 -12 235 -26 44 -3 103 -7 130 -9
201 -16 306 -19 745 -19 557 0 667 5 890 44 30 5 70 12 88 15 18 3 92 21 165
39 256 66 523 177 737 306 374 226 600 561 665 984 7 51 15 58 16 18 1 -18 2
-35 3 -39 1 -5 6 -37 10 -73 4 -36 9 -76 11 -90 3 -14 7 -47 10 -75 3 -27 7
-61 10 -75 2 -14 7 -53 10 -88 4 -35 8 -73 10 -84 3 -11 7 -46 10 -77 4 -31 8
-67 10 -81 11 -82 15 -110 20 -150 2 -25 7 -65 10 -90 3 -25 7 -56 10 -70 2
-14 7 -54 11 -90 3 -36 8 -74 10 -85 2 -11 7 -47 10 -80 4 -33 8 -67 9 -75 8
-41 19 -146 17 -157 -2 -6 3 -15 10 -19 7 -4 356 -8 775 -8 l763 -1 1 25 c1
14 1 27 1 30 0 8 -12 354 -17 505 -3 77 -7 201 -10 275 -2 74 -7 221 -10 325
-4 105 -8 213 -9 240 l-2 50 -189 0 -190 0 -3 -337 -2 -338 -365 0 -365 0 -1
38 c0 20 -2 44 -3 52 -2 8 -6 51 -10 95 -3 44 -8 89 -10 100 -2 11 -7 58 -11
104 -4 47 -11 95 -16 108 -5 13 -6 23 -4 23 2 0 1 10 -4 23 -5 13 -12 48 -16
78 -4 30 -8 56 -10 59 -10 17 -20 179 -20 325 0 157 2 177 27 255 15 47 43
150 63 230 27 113 47 169 91 255 30 61 61 117 67 126 7 8 58 46 115 83 216
142 295 166 550 167 263 2 379 -41 600 -219 133 -106 157 -131 223 -228 93
-139 178 -337 233 -544 68 -255 72 -293 71 -590 -1 -151 -5 -309 -9 -350 -13
-135 -15 -164 -22 -260 -3 -52 -8 -111 -10 -130 -2 -19 -4 -123 -4 -231 0
-183 -1 -197 -20 -214 -11 -10 -20 -21 -20 -25 0 -12 470 -7 472 4 1 13 2 25
12 161 4 55 9 120 11 145 2 25 7 95 12 155 10 141 10 1203 0 1315 -22 235 -40
346 -92 545 -96 375 -305 743 -553 975 -180 169 -419 293 -652 339 -50 10
-238 29 -243 25z"/>
</g>
</svg>
